<svg width="40" height="30" viewBox="0 0 40 30" fill="none" xmlns="http://www.w3.org/2000/svg">
<path d="M26.25 16.25C26.25 17.9076 25.5915 19.4973 24.4194 20.6694C23.2473 21.8415 21.6576 22.5 20 22.5C18.3424 22.5 16.7527 21.8415 15.5806 20.6694C14.4085 19.4973 13.75 17.9076 13.75 16.25C13.75 14.5924 14.4085 13.0027 15.5806 11.8306C16.7527 10.6585 18.3424 10 20 10C21.6576 10 23.2473 10.6585 24.4194 11.8306C25.5915 13.0027 26.25 14.5924 26.25 16.25Z" fill="#4894FE"/>
<path d="M5 5C3.67392 5 2.40215 5.52678 1.46447 6.46447C0.526784 7.40215 0 8.67392 0 10L0 25C0 26.3261 0.526784 27.5979 1.46447 28.5355C2.40215 29.4732 3.67392 30 5 30H35C36.3261 30 37.5979 29.4732 38.5355 28.5355C39.4732 27.5979 40 26.3261 40 25V10C40 8.67392 39.4732 7.40215 38.5355 6.46447C37.5979 5.52678 36.3261 5 35 5H32.07C30.744 4.99972 29.4725 4.47275 28.535 3.535L26.465 1.465C25.5275 0.527253 24.256 0.000283187 22.93 0H17.07C15.744 0.000283187 14.4725 0.527253 13.535 1.465L11.465 3.535C10.5275 4.47275 9.25597 4.99972 7.93 5H5ZM6.25 10C5.91848 10 5.60054 9.8683 5.36612 9.63388C5.1317 9.39946 5 9.08152 5 8.75C5 8.41848 5.1317 8.10054 5.36612 7.86612C5.60054 7.6317 5.91848 7.5 6.25 7.5C6.58152 7.5 6.89946 7.6317 7.13388 7.86612C7.3683 8.10054 7.5 8.41848 7.5 8.75C7.5 9.08152 7.3683 9.39946 7.13388 9.63388C6.89946 9.8683 6.58152 10 6.25 10ZM28.75 16.25C28.75 18.5706 27.8281 20.7962 26.1872 22.4372C24.5462 24.0781 22.3206 25 20 25C17.6794 25 15.4538 24.0781 13.8128 22.4372C12.1719 20.7962 11.25 18.5706 11.25 16.25C11.25 13.9294 12.1719 11.7038 13.8128 10.0628C15.4538 8.42187 17.6794 7.5 20 7.5C22.3206 7.5 24.5462 8.42187 26.1872 10.0628C27.8281 11.7038 28.75 13.9294 28.75 16.25Z" fill="#4894FE"/>
</svg>
