<svg width="14" height="11" viewBox="0 0 14 11" fill="none" xmlns="http://www.w3.org/2000/svg">
<path d="M11.1406 0.765512C11.3607 0.555964 11.6536 0.440117 11.9575 0.442416C12.2614 0.444716 12.5525 0.564982 12.7694 0.777837C12.9864 0.990692 13.1121 1.27949 13.1201 1.58328C13.1282 1.88708 13.0179 2.18212 12.8125 2.40614L6.57813 10.203C6.47093 10.3185 6.34154 10.4111 6.19771 10.4755C6.05388 10.5398 5.89855 10.5744 5.74102 10.5774C5.58349 10.5803 5.42699 10.5514 5.28087 10.4924C5.13476 10.4335 5.00203 10.3457 4.89063 10.2343L0.756252 6.09989C0.641116 5.9926 0.548769 5.86323 0.484719 5.71948C0.420669 5.57573 0.386229 5.42055 0.383453 5.2632C0.380676 5.10586 0.409622 4.94956 0.468561 4.80364C0.5275 4.65772 0.615226 4.52517 0.726505 4.41389C0.837784 4.30261 0.970337 4.21488 1.11626 4.15595C1.26217 4.09701 1.41847 4.06806 1.57582 4.07084C1.73317 4.07361 1.88834 4.10805 2.03209 4.1721C2.17584 4.23615 2.30522 4.3285 2.4125 4.44364L5.68438 7.71395L11.1109 0.799888L11.1406 0.765512Z" fill="white"/>
</svg>
