<svg width="41" height="31" viewBox="0 0 41 31" fill="none" xmlns="http://www.w3.org/2000/svg">
<path fill-rule="evenodd" clip-rule="evenodd" d="M0.8125 4.25C0.8125 3.13112 1.25697 2.05806 2.04814 1.26689C2.83931 0.475725 3.91237 0.03125 5.03125 0.03125H35.9688C37.0876 0.03125 38.1607 0.475725 38.9519 1.26689C39.743 2.05806 40.1875 3.13112 40.1875 4.25V26.75C40.1875 27.8689 39.743 28.9419 38.9519 29.7331C38.1607 30.5243 37.0876 30.9688 35.9688 30.9688H5.03125C3.91237 30.9688 2.83931 30.5243 2.04814 29.7331C1.25697 28.9419 0.8125 27.8689 0.8125 26.75V4.25ZM3.625 23.1125V26.75C3.625 27.5263 4.255 28.1562 5.03125 28.1562H35.9688C36.3417 28.1562 36.6994 28.0081 36.9631 27.7444C37.2268 27.4806 37.375 27.123 37.375 26.75V23.1125L32.3312 18.0706C31.8039 17.5439 31.0891 17.2481 30.3438 17.2481C29.5984 17.2481 28.8836 17.5439 28.3563 18.0706L26.7063 19.7188L28.525 21.5375C28.6632 21.6662 28.774 21.8215 28.8508 21.994C28.9277 22.1665 28.969 22.3527 28.9724 22.5415C28.9757 22.7303 28.941 22.9179 28.8702 23.093C28.7995 23.2681 28.6942 23.4272 28.5607 23.5607C28.4272 23.6942 28.2681 23.7995 28.093 23.8702C27.9179 23.941 27.7303 23.9757 27.5415 23.9724C27.3527 23.969 27.1665 23.9277 26.994 23.8508C26.8215 23.774 26.6662 23.6632 26.5375 23.525L16.8625 13.8519C16.3352 13.3252 15.6203 13.0293 14.875 13.0293C14.1297 13.0293 13.4148 13.3252 12.8875 13.8519L3.625 23.1125ZM22.6094 8.46875C22.6094 7.90931 22.8316 7.37278 23.2272 6.9772C23.6228 6.58161 24.1593 6.35938 24.7188 6.35938C25.2782 6.35938 25.8147 6.58161 26.2103 6.9772C26.6059 7.37278 26.8281 7.90931 26.8281 8.46875C26.8281 9.02819 26.6059 9.56472 26.2103 9.9603C25.8147 10.3559 25.2782 10.5781 24.7188 10.5781C24.1593 10.5781 23.6228 10.3559 23.2272 9.9603C22.8316 9.56472 22.6094 9.02819 22.6094 8.46875Z" fill="#4894FE"/>
</svg>
