<svg width="33" height="34" viewBox="0 0 33 34" fill="none" xmlns="http://www.w3.org/2000/svg">
<path d="M32.2266 8.39259L24.853 0.796899C24.6079 0.544255 24.3168 0.343843 23.9965 0.20711C23.6762 0.0703763 23.3328 0 22.9861 0C22.6394 0 22.296 0.0703763 21.9757 0.20711C21.6554 0.343843 21.3643 0.544255 21.1192 0.796899L0.773833 21.7598C0.527629 22.0115 0.332432 22.3111 0.199588 22.6412C0.0667447 22.9713 -0.00109463 23.3252 1.33562e-05 23.6826V31.28C1.33562e-05 32.0014 0.278145 32.6932 0.773222 33.2033C1.2683 33.7134 1.93977 34 2.63991 34H30.3588C30.7089 34 31.0447 33.8567 31.2922 33.6017C31.5397 33.3466 31.6788 33.0007 31.6788 32.64C31.6788 32.2793 31.5397 31.9334 31.2922 31.6783C31.0447 31.4233 30.7089 31.28 30.3588 31.28H13.7473L32.2266 12.2397C32.4718 11.9871 32.6663 11.6873 32.799 11.3572C32.9317 11.0272 33 10.6734 33 10.3162C33 9.95891 32.9317 9.60516 32.799 9.27511C32.6663 8.94506 32.4718 8.64518 32.2266 8.39259ZM17.1594 8.72239L19.9131 11.5597L5.93979 25.9572L3.18604 23.1199L17.1594 8.72239ZM2.63991 31.28V26.4026L7.37358 31.28H2.63991ZM10.5596 30.7173L7.80751 27.8799L21.7792 13.4825L24.5329 16.3198L10.5596 30.7173ZM26.399 14.3971L19.0271 6.79967L22.9869 2.71962L30.3588 10.317L26.399 14.3971Z" fill="#4894FE"/>
</svg>
