<svg width="34" height="37" viewBox="0 0 34 37" fill="none" xmlns="http://www.w3.org/2000/svg">
<path d="M2.67502 17.5C2.67502 17.2149 2.56177 16.9415 2.36016 16.7399C2.15856 16.5383 1.88513 16.425 1.60002 16.425C1.31492 16.425 1.04149 16.5383 0.839885 16.7399C0.638283 16.9415 0.525025 17.2149 0.525025 17.5C0.524609 20.4504 1.62713 23.2944 3.61612 25.4735C5.60511 27.6526 8.33687 29.0095 11.275 29.2777V33.625C11.275 33.9102 11.3883 34.1836 11.5899 34.3852C11.7915 34.5868 12.0649 34.7 12.35 34.7C12.6351 34.7 12.9086 34.5868 13.1102 34.3852C13.3118 34.1836 13.425 33.9102 13.425 33.625V32.1071C12.7159 30.5597 12.3492 28.8773 12.35 27.175C9.78406 27.175 7.32318 26.1557 5.50877 24.3413C3.69435 22.5269 2.67502 20.066 2.67502 17.5ZM18.8 6.75005V16.64C17.3526 17.3786 16.0729 18.4075 15.0409 19.6627C14.0088 20.9178 13.2465 22.3722 12.8015 23.935C12.6496 23.945 12.4991 23.95 12.35 23.95C10.6394 23.95 8.9988 23.2705 7.78919 22.0609C6.57958 20.8513 5.90002 19.2107 5.90002 17.5V6.75005C5.90002 5.0394 6.57958 3.39882 7.78919 2.18921C8.9988 0.979601 10.6394 0.300049 12.35 0.300049C14.0607 0.300049 15.7013 0.979601 16.9109 2.18921C18.1205 3.39882 18.8 5.0394 18.8 6.75005ZM29.55 27.175C29.55 28.6006 28.9837 29.9677 27.9757 30.9757C26.9677 31.9838 25.6006 32.55 24.175 32.55C22.7495 32.55 21.3823 31.9838 20.3743 30.9757C19.3663 29.9677 18.8 28.6006 18.8 27.175C18.8 25.7495 19.3663 24.3824 20.3743 23.3743C21.3823 22.3663 22.7495 21.8 24.175 21.8C25.6006 21.8 26.9677 22.3663 27.9757 23.3743C28.9837 24.3824 29.55 25.7495 29.55 27.175ZM33.85 27.175C33.85 29.741 32.8307 32.2019 31.0163 34.0163C29.2019 35.8307 26.741 36.85 24.175 36.85C21.6091 36.85 19.1482 35.8307 17.3338 34.0163C15.5194 32.2019 14.5 29.741 14.5 27.175C14.5 24.6091 15.5194 22.1482 17.3338 20.3338C19.1482 18.5194 21.6091 17.5 24.175 17.5C26.741 17.5 29.2019 18.5194 31.0163 20.3338C32.8307 22.1482 33.85 24.6091 33.85 27.175ZM16.65 27.175C16.65 28.1632 16.8447 29.1418 17.2228 30.0547C17.601 30.9677 18.1553 31.7973 18.854 32.496C19.5528 33.1948 20.3824 33.7491 21.2953 34.1272C22.2083 34.5054 23.1868 34.7 24.175 34.7C25.1632 34.7 26.1417 34.5054 27.0547 34.1272C27.9677 33.7491 28.7972 33.1948 29.496 32.496C30.1948 31.7973 30.7491 30.9677 31.1272 30.0547C31.5054 29.1418 31.7 28.1632 31.7 27.175C31.7 25.1793 30.9072 23.2653 29.496 21.8541C28.0848 20.4429 26.1708 19.65 24.175 19.65C22.1793 19.65 20.2653 20.4429 18.854 21.8541C17.4428 23.2653 16.65 25.1793 16.65 27.175Z" fill="#4894FE"/>
</svg>
